<svg id="SvgjsSvg1001" width="288" height="288" xmlns="http://www.w3.org/2000/svg" version="1.1" xmlns:xlink="http://www.w3.org/1999/xlink" xmlns:svgjs="http://svgjs.com/svgjs"><defs id="SvgjsDefs1002"></defs><g id="SvgjsG1008" transform="matrix(1,0,0,1,0,0)"><svg xmlns="http://www.w3.org/2000/svg" width="288" height="288" viewBox="0 0 400 235.472"><path fill-rule="evenodd" d="M59.308 0.523 C 58.862 0.783,58.747 1.405,59.016 2.105 C 59.097 2.316,59.917 2.737,60.839 3.039 C 61.761 3.342,62.629 3.671,62.767 3.771 C 63.209 4.092,67.027 5.355,67.490 5.334 C 67.755 5.322,67.866 5.426,67.763 5.593 C 67.651 5.773,67.738 5.815,68.009 5.711 C 68.239 5.623,68.428 5.642,68.428 5.754 C 68.428 6.018,70.429 6.669,71.021 6.597 C 71.271 6.567,71.406 6.655,71.321 6.793 C 71.235 6.931,71.304 7.044,71.474 7.044 C 71.769 7.044,76.301 8.607,77.358 9.073 C 77.635 9.195,78.314 9.455,78.868 9.651 C 79.421 9.848,81.075 10.442,82.543 10.973 C 84.867 11.813,85.297 11.898,85.876 11.634 C 87.287 10.992,86.237 9.057,84.478 9.057 C 84.284 9.057,84.018 8.962,83.887 8.846 C 83.755 8.730,82.403 8.209,80.881 7.689 C 79.358 7.168,77.128 6.359,75.923 5.891 C 74.673 5.405,73.548 5.110,73.303 5.204 C 72.987 5.325,72.928 5.280,73.082 5.031 C 73.234 4.785,73.177 4.738,72.871 4.855 C 72.641 4.943,72.453 4.916,72.453 4.795 C 72.453 4.514,69.442 3.487,69.150 3.668 C 69.029 3.742,68.931 3.701,68.931 3.575 C 68.931 3.363,60.510 0.242,59.985 0.259 C 59.855 0.263,59.550 0.382,59.308 0.523 M50.731 3.479 C 50.238 4.024,50.188 4.868,50.629 5.223 C 50.909 5.449,55.596 7.277,56.226 7.407 C 56.365 7.435,56.931 7.660,57.484 7.907 C 58.038 8.155,58.791 8.373,59.158 8.392 C 59.525 8.412,59.784 8.495,59.733 8.577 C 59.597 8.799,61.426 9.312,61.716 9.133 C 61.866 9.040,61.883 9.110,61.759 9.312 C 61.611 9.551,61.666 9.602,61.955 9.491 C 62.176 9.406,62.393 9.428,62.437 9.541 C 62.480 9.653,63.421 10.050,64.528 10.423 C 65.635 10.795,66.887 11.258,67.310 11.451 C 68.944 12.195,70.181 11.571,69.831 10.178 C 69.691 9.619,69.600 9.541,69.421 9.824 C 69.233 10.121,69.189 10.102,69.186 9.722 C 69.183 9.384,69.063 9.300,68.750 9.420 C 68.512 9.512,68.399 9.504,68.499 9.404 C 68.599 9.304,67.804 8.911,66.731 8.530 C 65.658 8.149,63.195 7.278,61.258 6.593 C 59.321 5.909,56.327 4.825,54.605 4.184 C 50.985 2.837,51.266 2.888,50.731 3.479 M158.754 13.357 C 154.717 14.148,150.991 18.027,150.212 22.247 C 149.828 24.330,149.827 84.846,150.211 86.923 C 151.019 91.295,154.741 95.021,159.103 95.825 C 160.098 96.009,166.824 96.101,179.276 96.101 L 197.957 96.101 198.035 99.016 C 198.078 100.619,198.075 101.968,198.028 102.015 C 197.982 102.061,194.419 102.112,190.111 102.128 C 181.206 102.161,181.199 102.163,180.178 104.157 C 179.247 105.973,179.984 108.159,181.823 109.035 C 183.109 109.649,221.000 109.640,222.294 109.026 C 224.826 107.824,225.083 104.517,222.782 102.761 L 221.916 102.101 214.365 102.127 C 204.605 102.161,205.535 102.494,205.535 98.966 L 205.535 96.101 224.620 96.101 C 236.255 96.101,244.221 96.003,245.028 95.850 C 249.058 95.085,252.465 91.923,253.683 87.816 C 254.360 85.533,254.294 23.067,253.613 21.087 C 252.302 17.276,249.707 14.708,246.006 13.556 C 244.344 13.038,161.344 12.849,158.754 13.357 M245.306 19.705 C 245.916 20.027,246.755 20.772,247.170 21.362 L 247.925 22.433 247.991 47.883 L 248.057 73.333 202.582 73.303 C 177.571 73.287,156.852 73.259,156.541 73.241 L 155.975 73.208 155.975 48.339 C 155.975 22.030,155.951 22.570,157.164 20.962 C 158.681 18.951,154.569 19.120,202.036 19.120 L 244.198 19.119 245.306 19.705 M58.461 19.790 C 57.971 20.229,56.754 23.225,56.076 25.660 C 55.903 26.283,55.683 26.906,55.588 27.044 C 55.295 27.470,53.555 32.644,53.655 32.794 C 53.685 32.841,53.569 33.049,53.396 33.258 C 53.120 33.590,52.715 33.508,50.080 32.585 C 47.854 31.805,46.961 31.596,46.621 31.776 C 45.850 32.184,45.039 33.017,45.184 33.250 C 45.259 33.372,45.170 33.440,44.987 33.402 C 44.804 33.364,44.685 33.483,44.723 33.666 C 44.761 33.850,44.693 33.938,44.571 33.863 C 44.267 33.675,42.225 35.456,42.407 35.751 C 42.487 35.881,42.442 35.956,42.307 35.918 C 42.069 35.851,40.083 37.504,37.233 40.143 C 36.472 40.847,35.400 41.811,34.851 42.284 C 33.025 43.858,31.980 44.977,32.154 45.172 C 32.249 45.277,32.207 45.295,32.060 45.212 C 31.666 44.988,29.844 46.690,30.076 47.065 C 30.198 47.263,30.162 47.309,29.974 47.192 C 29.648 46.991,28.352 47.891,28.604 48.143 C 28.691 48.230,28.631 48.302,28.470 48.302 C 28.308 48.302,28.176 48.633,28.176 49.037 C 28.176 50.127,29.403 50.392,36.981 50.944 C 41.140 51.246,41.587 51.298,41.786 51.497 C 42.005 51.716,41.597 53.867,41.297 54.082 C 41.195 54.154,40.621 55.536,40.021 57.152 C 38.379 61.575,38.622 61.871,43.624 61.535 C 45.021 61.441,47.352 61.314,48.805 61.252 C 51.170 61.151,62.413 60.626,78.491 59.866 C 81.604 59.719,88.382 59.376,93.553 59.103 C 98.724 58.831,105.234 58.546,108.018 58.470 C 116.223 58.247,116.532 57.801,111.913 52.830 C 111.206 52.069,108.648 49.155,106.228 46.355 C 103.809 43.555,101.711 41.337,101.567 41.426 C 101.424 41.514,101.374 41.478,101.456 41.344 C 101.539 41.210,101.358 40.812,101.055 40.459 C 100.594 39.923,98.005 37.030,96.604 35.486 C 96.396 35.257,95.565 34.311,94.758 33.383 C 93.950 32.455,93.168 31.771,93.021 31.862 C 92.860 31.961,92.826 31.908,92.936 31.730 C 93.100 31.465,92.512 30.685,89.839 27.621 C 89.508 27.242,89.141 26.992,89.024 27.064 C 88.907 27.137,88.863 27.049,88.927 26.868 C 89.073 26.458,87.622 24.830,87.292 25.034 C 87.159 25.116,87.109 25.030,87.181 24.842 C 87.311 24.504,86.284 23.425,85.376 22.947 C 84.947 22.720,83.078 22.440,74.017 21.242 C 72.317 21.017,70.755 20.899,70.544 20.980 C 70.334 21.060,70.218 21.037,70.285 20.928 C 70.384 20.768,65.992 20.137,59.865 19.431 C 59.248 19.360,58.819 19.469,58.461 19.790 M62.893 24.670 C 63.517 25.380,66.358 26.933,66.014 26.376 C 65.902 26.195,65.945 26.154,66.129 26.268 C 66.291 26.368,66.368 26.539,66.301 26.647 C 66.169 26.861,68.223 28.428,68.637 28.428 C 68.775 28.428,68.927 28.518,68.973 28.629 C 69.058 28.834,72.782 31.340,74.550 32.382 C 75.315 32.833,75.627 32.897,76.059 32.688 C 76.584 32.435,76.586 32.439,76.119 32.814 C 75.852 33.027,75.683 33.235,75.742 33.275 C 79.240 35.643,81.845 37.210,82.062 37.076 C 82.219 36.979,82.272 37.017,82.183 37.161 C 82.039 37.393,90.450 43.233,90.710 43.082 C 90.769 43.047,91.048 43.249,91.330 43.531 C 91.612 43.813,91.980 43.965,92.148 43.868 C 92.315 43.772,92.372 43.783,92.272 43.893 C 92.112 44.071,94.153 45.526,100.690 49.894 C 102.480 51.090,103.261 51.889,102.201 51.440 C 99.782 50.414,89.461 46.824,89.271 46.941 C 89.153 47.014,89.057 46.963,89.057 46.828 C 89.057 46.692,88.462 46.394,87.736 46.166 C 87.009 45.937,86.189 45.655,85.912 45.540 C 85.635 45.424,84.277 44.926,82.893 44.434 C 81.509 43.942,79.592 43.254,78.632 42.907 C 77.672 42.559,76.838 42.324,76.778 42.383 C 76.718 42.443,76.496 42.319,76.285 42.107 C 76.073 41.895,75.690 41.777,75.434 41.844 C 75.143 41.920,75.031 41.864,75.135 41.695 C 75.241 41.523,75.149 41.483,74.884 41.585 C 74.654 41.673,74.465 41.645,74.465 41.522 C 74.465 41.305,73.025 40.861,72.642 40.958 C 72.538 40.985,72.453 40.911,72.453 40.795 C 72.453 40.678,71.972 40.445,71.384 40.276 C 70.796 40.107,69.550 39.682,68.615 39.333 C 67.681 38.983,66.775 38.674,66.603 38.645 C 66.430 38.616,66.063 38.474,65.786 38.330 C 65.509 38.186,64.547 37.810,63.648 37.493 C 62.748 37.177,61.302 36.645,60.434 36.310 C 59.565 35.976,58.727 35.781,58.571 35.877 C 58.408 35.978,58.356 35.940,58.450 35.789 C 58.646 35.472,57.465 35.130,57.032 35.379 C 56.863 35.476,56.819 35.454,56.933 35.330 C 57.045 35.207,56.762 34.976,56.304 34.816 C 55.846 34.656,55.497 34.427,55.527 34.307 C 55.558 34.186,56.095 32.730,56.721 31.069 C 57.347 29.409,57.851 28.019,57.841 27.980 C 57.822 27.906,58.950 24.868,59.522 23.450 L 59.856 22.624 61.312 23.576 C 62.112 24.099,62.824 24.591,62.893 24.670 M67.296 23.019 C 68.126 23.090,69.145 23.198,69.560 23.258 C 69.975 23.318,70.881 23.432,71.572 23.510 C 72.264 23.588,73.987 23.814,75.401 24.012 C 76.814 24.210,78.173 24.374,78.419 24.377 C 78.666 24.379,79.547 24.505,80.376 24.657 C 81.206 24.808,82.083 24.880,82.326 24.817 C 82.568 24.753,82.830 24.804,82.908 24.929 C 82.985 25.055,83.333 25.157,83.682 25.157 C 84.061 25.157,84.534 25.424,84.862 25.823 C 85.163 26.189,85.805 26.909,86.289 27.422 C 86.774 27.936,87.608 28.879,88.145 29.519 C 88.681 30.159,89.236 30.611,89.379 30.523 C 89.525 30.432,89.562 30.485,89.464 30.644 C 89.244 30.999,93.823 36.264,94.167 36.052 C 94.305 35.967,94.341 36.021,94.247 36.172 C 94.118 36.381,102.939 46.829,105.117 49.045 C 106.531 50.485,100.650 46.918,94.220 42.435 C 92.201 41.028,90.566 40.000,90.348 40.000 C 90.214 40.000,90.067 39.911,90.021 39.803 C 89.903 39.526,84.605 35.975,84.309 35.975 C 84.176 35.975,84.029 35.885,83.983 35.776 C 83.841 35.440,78.613 31.950,78.251 31.950 C 78.106 31.950,77.987 31.856,77.987 31.741 C 77.987 31.626,77.676 31.371,77.296 31.175 C 76.915 30.979,76.083 30.453,75.447 30.005 C 74.811 29.557,74.216 29.264,74.126 29.354 C 74.036 29.444,73.962 29.395,73.962 29.246 C 73.962 29.096,73.425 28.627,72.767 28.203 C 72.110 27.779,70.976 27.034,70.248 26.546 C 68.847 25.609,68.537 25.479,68.829 25.951 C 68.941 26.132,68.898 26.173,68.714 26.059 C 68.552 25.959,68.477 25.783,68.548 25.669 C 68.619 25.554,68.140 25.114,67.483 24.692 C 65.202 23.224,64.442 22.589,65.157 22.749 C 65.503 22.826,66.465 22.947,67.296 23.019 M292.453 34.419 C 288.046 37.239,290.132 43.782,295.255 43.204 C 299.407 42.736,300.811 37.363,297.451 34.801 C 296.229 33.868,293.624 33.669,292.453 34.419 M51.096 35.528 C 51.511 35.539,51.741 35.655,51.648 35.804 C 51.554 35.957,51.652 35.998,51.892 35.906 C 52.113 35.821,52.330 35.842,52.374 35.953 C 52.417 36.064,54.321 36.801,56.604 37.591 C 58.887 38.381,60.981 39.130,61.258 39.255 C 62.813 39.957,65.304 40.752,65.598 40.639 C 65.808 40.559,65.870 40.619,65.760 40.797 C 65.639 40.993,65.755 41.040,66.125 40.944 C 66.423 40.866,66.607 40.899,66.534 41.018 C 66.460 41.137,66.941 41.402,67.603 41.608 C 68.264 41.813,69.693 42.321,70.778 42.735 C 71.863 43.149,72.929 43.420,73.146 43.337 C 73.431 43.228,73.483 43.280,73.333 43.522 C 73.181 43.768,73.238 43.816,73.544 43.698 C 73.774 43.610,73.962 43.639,73.962 43.764 C 73.962 43.888,74.613 44.174,75.409 44.399 C 76.204 44.624,77.195 44.959,77.610 45.145 C 78.328 45.465,79.645 45.955,84.125 47.569 C 85.218 47.963,86.199 48.232,86.305 48.166 C 86.411 48.101,86.536 48.153,86.582 48.282 C 86.657 48.490,89.206 49.449,98.302 52.690 C 99.720 53.195,101.248 53.769,101.698 53.964 L 102.516 54.320 101.509 54.329 C 100.587 54.337,93.531 53.690,63.270 50.820 C 57.321 50.255,51.830 49.747,51.069 49.691 C 50.308 49.634,48.723 49.472,47.547 49.332 C 46.371 49.191,44.560 49.017,43.522 48.944 C 42.484 48.871,39.654 48.601,37.233 48.344 C 34.811 48.086,32.708 47.970,32.558 48.085 C 32.391 48.213,32.285 48.149,32.285 47.921 C 32.285 47.715,32.341 47.603,32.409 47.671 C 32.626 47.888,33.208 47.249,33.040 46.977 C 32.951 46.833,32.991 46.784,33.129 46.870 C 33.449 47.068,36.021 44.807,35.829 44.497 C 35.750 44.369,35.791 44.295,35.919 44.333 C 36.382 44.471,39.285 41.692,38.939 41.443 C 38.704 41.273,38.731 41.247,39.038 41.345 C 39.510 41.495,40.099 40.948,39.809 40.628 C 39.707 40.515,39.774 40.510,39.960 40.617 C 40.342 40.838,42.333 39.057,42.109 38.695 C 42.036 38.576,42.083 38.509,42.215 38.547 C 42.430 38.609,44.131 37.224,46.137 35.353 C 47.272 34.294,47.728 34.225,49.133 34.903 C 49.822 35.235,50.706 35.516,51.096 35.528 M296.372 36.962 C 298.043 38.633,296.448 41.399,294.108 40.885 C 291.459 40.303,291.992 36.226,294.717 36.226 C 295.398 36.226,295.827 36.417,296.372 36.962 M276.226 41.730 C 269.054 44.088,268.323 53.696,275.083 56.749 C 282.945 60.300,290.090 50.560,284.284 44.207 C 282.270 42.004,278.717 40.911,276.226 41.730 M281.409 44.668 C 283.613 46.031,284.675 49.283,283.686 51.643 C 281.419 57.053,273.302 55.917,272.776 50.116 C 272.339 45.289,277.324 42.143,281.409 44.668 M47.935 51.934 C 49.186 51.999,50.375 52.108,50.577 52.177 C 50.778 52.246,51.792 52.358,52.830 52.427 C 53.868 52.496,56.302 52.722,58.239 52.929 C 60.176 53.136,62.044 53.306,62.390 53.308 C 62.961 53.310,69.343 53.938,78.994 54.942 C 81.000 55.151,84.679 55.506,87.170 55.732 C 93.571 56.312,93.477 56.468,86.518 56.812 C 83.141 56.979,77.264 57.282,73.459 57.486 C 65.725 57.902,46.540 58.829,44.040 58.908 C 42.018 58.972,42.034 59.044,43.287 55.576 C 43.857 53.997,44.345 52.591,44.370 52.453 C 44.474 51.888,44.847 51.560,45.241 51.685 C 45.472 51.758,46.684 51.870,47.935 51.934 M29.407 59.427 C 29.240 59.742,28.779 60.601,28.383 61.336 C 27.986 62.071,27.740 62.807,27.834 62.971 C 27.928 63.136,27.912 63.186,27.797 63.082 C 27.557 62.864,25.408 67.663,25.290 68.679 C 25.282 68.748,25.203 68.918,25.115 69.057 C 25.027 69.195,24.886 69.746,24.801 70.281 C 24.717 70.816,24.586 71.353,24.511 71.475 C 24.436 71.597,24.326 71.895,24.267 72.137 C 24.208 72.380,23.990 73.258,23.783 74.088 C 23.577 74.918,23.469 75.796,23.545 76.038 C 23.620 76.280,23.577 76.478,23.449 76.478 C 22.697 76.478,22.398 87.019,23.018 91.698 C 23.421 94.750,24.400 99.119,24.680 99.119 C 24.778 99.119,24.799 99.346,24.727 99.623 C 24.651 99.915,24.719 100.126,24.891 100.126 C 25.054 100.126,25.124 100.227,25.048 100.351 C 24.922 100.554,25.956 103.624,26.366 104.266 C 26.458 104.410,26.540 104.585,26.548 104.654 C 26.632 105.379,27.266 106.637,27.481 106.504 C 27.637 106.408,27.678 106.455,27.578 106.617 C 27.287 107.087,31.035 113.882,31.744 114.172 C 31.857 114.218,31.950 114.368,31.950 114.506 C 31.950 115.227,37.403 121.338,37.818 121.082 C 37.954 120.997,37.996 121.040,37.912 121.176 C 37.705 121.512,40.890 124.546,42.751 125.786 C 43.063 125.994,43.523 126.333,43.774 126.541 C 44.025 126.748,44.438 127.057,44.694 127.228 C 44.949 127.398,45.836 127.992,46.667 128.548 C 47.497 129.104,48.318 129.559,48.491 129.559 C 48.664 129.559,48.805 129.656,48.805 129.773 C 48.805 130.017,53.696 132.370,54.009 132.277 C 54.121 132.243,54.497 132.398,54.843 132.622 C 55.594 133.109,59.211 134.365,59.969 134.402 C 60.263 134.417,60.616 134.511,60.755 134.611 C 61.065 134.835,65.610 135.828,66.295 135.821 C 66.569 135.819,67.585 135.933,68.553 136.076 C 71.897 136.569,82.511 136.226,82.517 135.625 C 82.518 135.541,83.000 135.450,83.587 135.423 C 88.318 135.207,97.202 131.334,104.536 126.289 C 105.646 125.525,107.336 124.113,108.842 122.690 L 110.388 121.229 109.146 120.068 L 107.905 118.906 106.720 120.037 C 105.025 121.655,103.329 122.995,100.881 124.651 C 98.884 126.001,98.024 126.641,98.844 126.165 C 99.083 126.026,99.139 126.055,99.015 126.255 C 98.915 126.417,98.732 126.486,98.608 126.410 C 98.484 126.333,97.575 126.728,96.589 127.287 C 89.347 131.391,78.950 133.593,70.503 132.811 C 68.601 132.635,66.676 132.483,66.226 132.472 C 65.777 132.461,65.409 132.383,65.409 132.297 C 65.409 132.211,64.814 132.048,64.088 131.935 C 63.362 131.822,62.654 131.712,62.516 131.690 C 62.377 131.669,61.940 131.518,61.544 131.355 C 61.148 131.193,60.695 131.080,60.538 131.104 C 60.380 131.129,60.082 131.077,59.874 130.990 C 59.667 130.903,58.591 130.501,57.484 130.097 C 56.377 129.694,54.818 129.063,54.018 128.696 C 53.219 128.329,52.426 128.109,52.257 128.206 C 52.088 128.303,52.030 128.293,52.129 128.184 C 52.228 128.074,51.098 127.258,49.619 126.369 C 48.139 125.481,46.729 124.572,46.483 124.350 C 46.238 124.129,46.038 124.034,46.038 124.140 C 46.038 124.246,45.824 124.069,45.563 123.747 C 45.181 123.275,45.018 123.220,44.725 123.463 C 44.436 123.703,44.361 123.691,44.361 123.403 C 44.361 123.204,44.483 123.103,44.633 123.179 C 44.783 123.255,44.398 122.882,43.777 122.351 C 41.500 120.399,39.866 118.889,39.537 118.432 C 39.258 118.044,39.128 118.018,38.782 118.278 C 38.439 118.536,38.417 118.533,38.660 118.259 C 38.971 117.907,36.371 114.512,35.904 114.660 C 35.784 114.698,35.749 114.628,35.826 114.503 C 35.903 114.379,35.664 113.952,35.295 113.554 C 34.926 113.156,34.629 112.774,34.635 112.704 C 34.667 112.335,33.866 111.475,33.620 111.615 C 33.462 111.705,33.413 111.690,33.511 111.582 C 33.676 111.399,32.842 109.469,32.476 109.182 C 32.387 109.113,32.039 108.527,31.702 107.880 C 31.365 107.232,30.982 106.768,30.852 106.849 C 30.721 106.930,30.688 106.877,30.778 106.731 C 30.984 106.398,30.083 104.340,29.839 104.585 C 29.740 104.684,29.741 104.551,29.841 104.291 C 29.966 103.963,29.933 103.872,29.731 103.997 C 29.550 104.109,29.489 104.048,29.571 103.836 C 29.643 103.648,29.415 102.847,29.065 102.055 C 28.714 101.263,28.428 100.512,28.428 100.387 C 28.428 100.261,28.296 99.840,28.136 99.450 C 27.975 99.061,27.867 98.601,27.895 98.428 C 27.923 98.255,27.816 98.113,27.657 98.113 C 27.498 98.113,27.433 97.942,27.513 97.734 C 27.593 97.525,27.535 97.044,27.384 96.664 C 27.232 96.285,27.074 95.692,27.032 95.346 C 26.990 95.000,26.782 93.602,26.569 92.240 C 25.717 86.796,25.804 81.717,26.843 76.226 C 27.065 75.050,27.246 73.780,27.245 73.404 C 27.244 73.028,27.333 72.775,27.443 72.843 C 27.553 72.911,27.640 72.766,27.636 72.521 C 27.628 71.888,28.860 68.379,29.854 66.207 C 30.318 65.193,30.622 64.242,30.530 64.093 C 30.434 63.938,30.480 63.894,30.635 63.990 C 30.886 64.145,31.214 63.569,31.170 63.047 C 31.160 62.924,31.260 62.754,31.391 62.670 C 31.523 62.585,31.862 62.059,32.145 61.501 L 32.659 60.486 31.905 60.053 C 31.490 59.815,31.044 59.686,30.915 59.766 C 30.785 59.846,30.710 59.767,30.748 59.590 C 30.787 59.413,30.704 59.261,30.566 59.253 C 30.428 59.244,30.179 59.151,30.013 59.046 C 29.826 58.927,29.595 59.073,29.407 59.427 M40.418 69.052 C 39.595 69.875,40.088 70.700,41.696 71.192 C 42.216 71.351,42.873 71.593,43.155 71.730 C 43.438 71.867,43.834 72.009,44.036 72.046 C 44.238 72.082,44.841 72.302,45.377 72.534 C 45.912 72.766,46.413 72.956,46.490 72.956 C 46.567 72.956,48.145 73.524,49.998 74.218 C 51.851 74.913,53.472 75.416,53.601 75.336 C 53.731 75.256,53.836 75.299,53.836 75.432 C 53.836 75.732,55.321 76.271,55.626 76.083 C 55.749 76.007,55.849 76.060,55.849 76.201 C 55.849 76.342,56.330 76.591,56.918 76.754 C 57.506 76.916,58.723 77.334,59.623 77.683 C 60.522 78.031,61.711 78.461,62.264 78.638 C 62.818 78.816,63.893 79.207,64.654 79.508 C 66.633 80.291,67.216 80.274,67.626 79.421 C 68.107 78.420,66.701 77.219,64.679 76.904 C 64.458 76.869,64.137 76.753,63.966 76.647 C 63.794 76.540,62.719 76.127,61.576 75.730 C 60.432 75.332,58.553 74.658,57.400 74.232 C 56.247 73.805,55.199 73.520,55.073 73.598 C 54.946 73.676,54.843 73.644,54.843 73.526 C 54.843 73.408,54.192 73.098,53.396 72.836 C 52.601 72.575,51.836 72.280,51.698 72.181 C 51.560 72.083,51.050 71.887,50.566 71.747 C 49.667 71.486,45.462 69.979,43.648 69.267 C 42.064 68.646,40.901 68.569,40.418 69.052 M59.659 70.024 C 58.987 70.739,59.149 71.319,60.168 71.846 C 60.861 72.204,65.745 73.971,66.289 74.061 C 66.428 74.084,66.679 74.189,66.849 74.294 C 67.018 74.400,67.754 74.691,68.484 74.940 C 69.214 75.189,71.095 75.873,72.664 76.458 C 74.233 77.044,75.576 77.464,75.650 77.390 C 75.723 77.317,75.943 77.417,76.139 77.612 C 77.182 78.655,78.994 78.255,78.994 76.981 C 78.994 76.044,78.845 75.955,75.094 74.648 C 70.230 72.953,67.728 72.049,65.970 71.352 C 65.103 71.007,64.466 70.843,64.555 70.986 C 64.644 71.130,64.441 71.067,64.106 70.847 C 63.550 70.483,60.785 69.434,60.382 69.434 C 60.289 69.434,59.964 69.699,59.659 70.024 M314.329 72.098 C 311.706 73.009,304.918 75.323,299.245 77.239 C 293.572 79.155,287.063 81.355,284.780 82.127 C 275.115 85.395,274.977 85.637,280.784 89.130 C 282.082 89.910,285.296 91.960,287.925 93.684 C 293.333 97.231,295.562 98.674,314.722 111.029 C 322.266 115.894,330.643 121.301,333.338 123.044 C 341.431 128.279,340.874 128.361,342.021 121.761 C 342.733 117.663,342.839 117.233,343.138 117.233 C 343.254 117.233,345.595 118.297,348.341 119.597 C 357.434 123.903,357.460 123.884,354.523 114.969 C 353.543 111.994,351.932 107.013,350.942 103.899 C 348.643 96.667,349.111 97.286,345.422 96.606 C 343.163 96.190,342.390 95.952,342.390 95.675 C 342.390 95.470,342.960 92.187,343.657 88.379 C 345.189 80.007,345.737 81.218,339.188 78.522 C 337.559 77.851,334.019 76.369,331.321 75.228 C 324.469 72.331,319.763 70.440,319.404 70.440 C 319.236 70.440,316.953 71.186,314.329 72.098 M323.908 75.073 C 332.513 78.624,337.225 80.725,336.852 80.846 C 336.646 80.913,333.252 81.150,329.308 81.373 C 322.055 81.783,305.418 82.804,298.491 83.264 C 287.545 83.991,287.656 84.022,293.836 81.939 C 301.120 79.483,317.071 74.021,318.113 73.625 C 318.667 73.415,319.180 73.235,319.254 73.225 C 319.327 73.216,321.422 74.047,323.908 75.073 M248.006 83.101 C 247.908 87.444,247.493 88.385,245.204 89.451 L 243.899 90.058 202.168 90.060 C 156.478 90.063,159.147 90.157,157.475 88.485 C 156.202 87.212,155.978 86.328,155.976 82.579 L 155.975 79.497 202.031 79.497 L 248.087 79.497 248.006 83.101 M341.767 83.836 C 341.697 84.148,341.237 86.667,340.747 89.434 C 339.548 96.196,339.708 95.626,339.051 95.478 C 338.415 95.335,326.925 93.269,306.164 89.565 C 289.863 86.657,290.498 86.776,290.630 86.645 C 290.739 86.536,301.848 85.722,309.057 85.295 C 325.160 84.342,338.833 83.500,339.371 83.429 C 341.392 83.161,341.902 83.248,341.767 83.836 M294.574 90.169 C 297.143 90.643,302.755 91.659,307.044 92.426 C 338.470 98.051,346.681 99.549,346.798 99.676 C 346.834 99.716,347.149 100.654,347.498 101.761 C 347.847 102.868,349.169 107.040,350.435 111.032 C 351.701 115.024,352.690 118.337,352.633 118.394 C 352.577 118.451,350.843 117.715,348.781 116.758 C 344.854 114.937,334.078 110.001,299.874 94.356 C 291.771 90.650,289.104 89.352,289.543 89.328 C 289.741 89.317,292.005 89.696,294.574 90.169 M349.824 90.993 C 349.728 91.658,349.593 92.440,349.523 92.732 C 349.408 93.217,349.604 93.310,351.804 93.819 C 392.998 103.338,402.774 157.637,367.427 180.592 C 361.097 184.703,351.171 188.176,345.753 188.176 L 344.906 188.176 344.906 189.539 C 344.906 191.962,344.966 191.987,349.182 191.316 C 374.328 187.313,392.665 165.951,392.699 140.622 C 392.733 115.762,375.518 94.948,350.785 89.944 C 350.007 89.787,349.996 89.798,349.824 90.993 M306.415 100.373 C 309.805 101.926,314.390 104.023,316.604 105.032 C 333.573 112.768,339.973 115.723,340.140 115.898 C 340.312 116.078,339.218 123.001,338.980 123.241 C 338.927 123.295,338.116 122.865,337.178 122.288 C 335.645 121.344,333.534 119.981,323.145 113.229 C 321.484 112.150,316.220 108.745,311.447 105.662 C 299.225 97.768,297.107 96.377,297.107 96.241 C 297.107 96.111,297.318 96.205,306.415 100.373 M129.180 97.562 C 125.584 99.245,125.315 103.998,128.706 105.955 C 131.842 107.765,135.846 105.135,135.541 101.466 C 135.287 98.392,131.877 96.300,129.180 97.562 M131.770 99.641 C 133.812 100.353,133.821 103.417,131.784 104.127 C 130.140 104.700,128.553 103.570,128.553 101.826 C 128.553 100.023,130.015 99.030,131.770 99.641 M199.753 116.944 C 198.081 117.840,197.871 118.388,197.780 122.101 L 197.699 125.425 196.321 126.146 C 194.818 126.933,193.595 128.207,192.671 129.949 L 192.076 131.069 158.114 131.070 C 120.205 131.070,123.079 130.933,121.829 132.804 C 121.095 133.903,120.925 148.313,121.630 149.676 C 122.885 152.102,126.204 152.351,127.806 150.139 L 128.553 149.107 128.553 143.610 L 128.553 138.113 160.314 138.116 L 192.075 138.119 192.579 139.181 C 193.186 140.463,195.574 142.917,196.645 143.361 L 197.419 143.682 197.537 146.946 C 197.684 151.032,198.747 152.704,201.198 152.704 C 203.845 152.704,205.031 150.888,205.031 146.839 L 205.031 143.935 206.192 143.355 C 207.499 142.702,209.583 140.553,210.331 139.086 L 210.828 138.113 242.647 138.113 L 274.465 138.113 274.465 143.295 C 274.465 149.103,274.582 149.627,276.112 150.669 C 277.800 151.817,280.289 151.218,281.360 149.407 C 282.049 148.240,281.951 134.187,281.245 132.991 C 280.087 131.028,283.493 131.204,245.031 131.123 L 210.692 131.050 210.254 130.101 C 209.611 128.710,208.245 127.220,206.736 126.265 C 204.974 125.150,205.040 125.316,205.035 121.987 C 205.029 117.395,202.828 115.294,199.753 116.944 M298.164 120.302 C 297.768 120.697,297.776 121.882,298.176 122.203 C 298.474 122.443,316.610 125.800,317.553 125.791 C 318.754 125.779,318.646 123.490,317.430 123.185 C 312.069 121.839,298.636 119.829,298.164 120.302 M306.969 127.597 C 306.573 127.993,306.581 129.178,306.981 129.499 C 307.154 129.638,312.786 130.736,319.497 131.939 C 326.208 133.142,332.354 134.243,333.156 134.387 C 334.429 134.616,334.676 134.592,335.106 134.204 C 336.420 133.014,335.357 132.039,332.134 131.477 C 327.684 130.702,314.134 128.275,311.497 127.781 C 308.500 127.220,307.391 127.175,306.969 127.597 M203.270 131.081 C 205.960 132.483,205.960 136.683,203.270 138.067 C 199.918 139.791,196.357 136.484,197.827 133.011 C 198.654 131.057,201.375 130.092,203.270 131.081 M68.426 151.443 C 66.187 152.078,63.400 154.656,63.056 156.412 C 63.008 156.656,62.875 157.074,62.761 157.341 C 62.542 157.852,62.502 160.022,62.695 160.881 C 63.107 162.716,63.209 163.019,63.416 163.019 C 63.544 163.019,63.619 163.160,63.585 163.333 C 63.550 163.506,63.672 163.617,63.855 163.579 C 64.045 163.539,64.114 163.630,64.015 163.790 C 63.761 164.201,65.588 165.968,67.044 166.719 C 69.680 168.079,75.210 167.416,75.885 165.658 C 75.963 165.453,76.137 165.353,76.270 165.436 C 76.403 165.518,76.572 165.355,76.645 165.074 C 76.719 164.793,76.938 164.502,77.131 164.428 C 77.941 164.117,78.840 161.479,78.854 159.371 C 78.891 154.026,73.574 149.984,68.426 151.443 M73.254 153.861 C 73.652 154.066,74.104 154.156,74.260 154.059 C 74.418 153.962,74.474 153.997,74.386 154.138 C 74.221 154.406,75.293 155.566,75.508 155.352 C 75.853 155.006,76.785 158.577,76.680 159.844 C 76.338 163.964,71.712 166.734,68.203 164.920 C 67.776 164.699,67.343 164.492,67.241 164.460 C 66.785 164.319,65.456 162.544,65.074 161.567 C 63.122 156.575,68.573 151.440,73.254 153.861 M101.384 159.595 C 98.308 160.279,95.822 162.439,94.692 165.409 C 94.232 166.619,94.214 167.789,94.214 196.478 L 94.214 226.289 94.888 227.728 C 95.780 229.631,97.594 231.529,99.340 232.387 L 100.755 233.082 125.013 233.150 C 152.126 233.225,150.828 233.304,153.168 231.454 C 154.663 230.272,155.740 228.769,156.313 227.062 C 157.038 224.905,156.940 167.123,156.209 165.168 C 155.175 162.404,152.329 160.069,149.325 159.519 C 147.102 159.112,103.244 159.181,101.384 159.595 M177.855 159.584 C 175.219 160.158,172.826 162.086,171.562 164.654 L 170.943 165.912 170.943 196.352 L 170.943 226.792 171.553 228.020 C 172.363 229.653,174.507 231.813,176.015 232.515 L 177.233 233.082 202.138 233.082 L 227.044 233.082 228.302 232.412 C 230.092 231.458,231.646 229.818,232.551 227.925 L 233.333 226.289 233.409 197.107 C 233.465 175.087,233.410 167.564,233.181 166.457 C 232.605 163.665,230.373 161.106,227.421 159.852 C 226.008 159.252,180.511 159.006,177.855 159.584 M253.430 159.597 C 250.853 160.229,248.516 162.153,247.286 164.654 L 246.667 165.912 246.667 196.352 L 246.667 226.792 247.264 227.995 C 248.704 230.894,251.363 232.794,254.612 233.244 C 257.218 233.605,301.525 233.392,302.645 233.013 C 305.532 232.036,307.811 229.749,308.683 226.955 C 309.273 225.065,309.480 168.961,308.907 166.289 C 308.343 163.660,305.698 160.765,302.905 159.719 C 301.625 159.240,255.347 159.126,253.430 159.597 M149.604 165.936 C 150.952 166.935,150.915 166.080,150.915 196.352 C 150.915 226.624,150.952 225.769,149.604 226.769 C 148.622 227.498,103.464 227.746,101.867 227.032 C 99.993 226.193,100.126 228.535,100.126 196.364 C 100.126 164.615,100.029 166.522,101.685 165.702 C 103.146 164.978,148.612 165.200,149.604 165.936 M225.480 165.626 C 227.473 166.469,227.296 163.467,227.296 196.374 L 227.296 225.651 226.473 226.473 L 225.651 227.296 202.497 227.364 C 176.305 227.441,177.978 227.563,177.069 225.507 C 176.613 224.477,176.598 223.373,176.662 195.929 C 176.738 164.033,176.592 166.458,178.479 165.637 C 179.627 165.137,224.299 165.126,225.480 165.626 M302.196 166.231 L 303.019 167.054 303.083 196.043 C 303.146 224.767,303.142 225.039,302.637 225.864 C 301.633 227.505,302.743 227.439,277.417 227.364 C 251.844 227.288,253.564 227.412,252.793 225.585 C 252.220 224.229,252.296 167.638,252.871 166.760 C 253.883 165.217,252.700 165.283,278.171 165.349 L 301.374 165.409 302.196 166.231 M109.447 182.230 C 106.673 183.260,106.205 186.779,108.600 188.606 L 109.520 189.308 117.427 189.381 C 126.661 189.467,127.035 189.392,128.065 187.264 C 128.931 185.476,128.460 183.849,126.696 182.531 C 125.825 181.881,111.080 181.623,109.447 182.230 M186.541 182.117 C 183.111 182.960,182.543 187.425,185.665 188.993 C 186.989 189.658,201.690 189.658,203.014 188.993 C 205.745 187.621,205.705 183.745,202.946 182.419 C 201.837 181.886,188.482 181.640,186.541 182.117 M261.453 182.413 C 258.692 183.780,258.651 187.518,261.380 188.968 C 262.542 189.586,277.155 189.684,278.591 189.083 C 281.464 187.883,281.502 183.787,278.653 182.408 C 276.990 181.602,263.082 181.607,261.453 182.413 M109.065 197.657 C 106.499 199.045,106.306 202.299,108.697 203.881 L 109.675 204.528 125.451 204.528 L 141.227 204.528 142.039 203.972 C 144.246 202.460,144.132 199.141,141.826 197.734 C 140.678 197.035,110.347 196.963,109.065 197.657 M185.469 197.734 C 185.018 198.009,184.425 198.603,184.150 199.054 C 183.140 200.710,183.741 202.973,185.469 204.027 C 186.264 204.511,186.767 204.526,202.038 204.527 L 217.787 204.528 218.616 203.962 C 220.922 202.388,220.861 199.201,218.498 197.740 C 217.223 196.953,186.760 196.947,185.469 197.734 M261.258 197.701 C 258.800 199.219,258.753 202.686,261.171 204.130 C 261.761 204.482,263.672 204.528,277.675 204.528 L 293.510 204.528 294.340 203.962 C 296.730 202.331,296.585 198.956,294.070 197.673 C 292.702 196.975,262.391 197.001,261.258 197.701 M109.434 211.351 C 106.596 212.480,106.216 216.268,108.774 217.944 C 109.648 218.517,140.641 218.698,141.630 218.136 C 144.344 216.595,144.349 212.975,141.639 211.535 C 140.631 210.999,110.748 210.829,109.434 211.351 M185.665 211.510 C 183.070 212.814,182.951 216.479,185.454 217.987 C 186.266 218.476,186.735 218.491,202.032 218.491 L 217.775 218.491 218.726 217.766 C 220.959 216.062,220.792 212.967,218.393 211.619 C 217.015 210.844,187.188 210.745,185.665 211.510 M261.389 211.510 C 258.700 212.861,258.707 216.627,261.401 218.051 L 262.497 218.631 278.018 218.561 L 293.539 218.491 294.505 217.713 C 296.802 215.865,296.319 212.316,293.631 211.291 C 292.389 210.817,262.362 211.021,261.389 211.510 " fill="#ffffff" class="color000 svgShape"></path></svg></g></svg>